<svg width="13" height="18" viewBox="0 0 13 18" fill="none" xmlns="http://www.w3.org/2000/svg">
<path d="M7.0625 10.0195H2.73828L2.71484 8.20312H6.64062C7.28906 8.20312 7.85547 8.09375 8.33984 7.875C8.82422 7.65625 9.19922 7.34375 9.46484 6.9375C9.73828 6.52344 9.875 6.03125 9.875 5.46094C9.875 4.83594 9.75391 4.32812 9.51172 3.9375C9.27734 3.53906 8.91406 3.25 8.42188 3.07031C7.9375 2.88281 7.32031 2.78906 6.57031 2.78906H3.24219V18H0.980469V0.9375H6.57031C7.44531 0.9375 8.22656 1.02734 8.91406 1.20703C9.60156 1.37891 10.1836 1.65234 10.6602 2.02734C11.1445 2.39453 11.5117 2.86328 11.7617 3.43359C12.0117 4.00391 12.1367 4.6875 12.1367 5.48438C12.1367 6.1875 11.957 6.82422 11.5977 7.39453C11.2383 7.95703 10.7383 8.41797 10.0977 8.77734C9.46484 9.13672 8.72266 9.36719 7.87109 9.46875L7.0625 10.0195ZM6.95703 18H1.84766L3.125 16.1602H6.95703C7.67578 16.1602 8.28516 16.0352 8.78516 15.7852C9.29297 15.5352 9.67969 15.1836 9.94531 14.7305C10.2109 14.2695 10.3438 13.7266 10.3438 13.1016C10.3438 12.4688 10.2305 11.9219 10.0039 11.4609C9.77734 11 9.42188 10.6445 8.9375 10.3945C8.45312 10.1445 7.82812 10.0195 7.0625 10.0195H3.83984L3.86328 8.20312H8.26953L8.75 8.85938C9.57031 8.92969 10.2656 9.16406 10.8359 9.5625C11.4062 9.95312 11.8398 10.4531 12.1367 11.0625C12.4414 11.6719 12.5938 12.3438 12.5938 13.0781C12.5938 14.1406 12.3594 15.0391 11.8906 15.7734C11.4297 16.5 10.7773 17.0547 9.93359 17.4375C9.08984 17.8125 8.09766 18 6.95703 18Z" fill="#FF3E81"/>
</svg>
