<svg width="17" height="16" viewBox="0 0 17 16" fill="none" xmlns="http://www.w3.org/2000/svg">
<path fill-rule="evenodd" clip-rule="evenodd" d="M13.3741 7.108C13.3741 7.108 13.3779 7.13867 13.3786 7.15467L14.3373 7.108H16.0678V0.333333L13.6902 2.80467C12.2803 1.08467 10.0723 0 7.73504 0C3.50016 0 0 3.58867 0 8C0 12.4113 3.41696 16 7.65184 16C10.6016 16 13.3126 14.206 14.5786 11.4293L12.8378 10.5713C11.8874 12.6547 9.83936 14.0007 7.62688 14.0007C4.45056 14.0007 1.8656 11.3087 1.8656 8.00067C1.8656 4.69267 4.44864 2.00067 7.62496 2.00067C9.46624 2.00067 11.1034 2.62133 12.1587 4.02533L9.22496 7.108H13.3741Z" fill="white"/>
</svg>
